ffmpeg started on 2016-12-01 at 13:47:54
Report written to "Output/x264/results/ffmpeg/old_town_cross_2160p50slow2500k.log"
Command line:
Tools/ffmpeg/ffmpeg -benchmark -y -i Input/y4m/old_town_cross_2160p50.y4m -c:v libx264 -preset slow -b:v 2500k -an Output/x264/encoded/old_town_cross_2160p50slow2500k.mkv
ffmpeg version N-82227-gdb23fde Copyright (c) 2000-2016 the FFmpeg developers
  built with gcc 5.4.0 (Ubuntu 5.4.0-6ubuntu1~16.04.2) 20160609
  configuration: --prefix=/home/jaroslav/ffmpeg_build --pkg-config-flags=--static --extra-cflags=-I/home/jaroslav/ffmpeg_build/include --extra-ldflags=-L/home/jaroslav/ffmpeg_build/lib --bindir=/home/jaroslav/bin --enable-gpl --enable-libass --enable-libfdk-aac --enable-libfreetype --enable-libmp3lame --enable-libopus --enable-libtheora --enable-libvorbis --enable-libvpx --enable-libx264 --enable-libx265 --enable-nvenc --enable-libmfx --enable-libxvid --enable-libgsm --enable-libopencore-amrnb --enable-version3 --enable-nonfree
  libavutil      55. 35.100 / 55. 35.100
  libavcodec     57. 66.101 / 57. 66.101
  libavformat    57. 57.100 / 57. 57.100
  libavdevice    57.  2.100 / 57.  2.100
  libavfilter     6. 66.100 /  6. 66.100
  libswscale      4.  3.100 /  4.  3.100
  libswresample   2.  4.100 /  2.  4.100
  libpostproc    54.  2.100 / 54.  2.100
Input #0, yuv4mpegpipe, from 'Input/y4m/old_town_cross_2160p50.y4m':
  Duration: 00:00:10.00, start: 0.000000, bitrate: 4976642 kb/s
    Stream #0:0: Video: rawvideo (I420 / 0x30323449), yuv420p(progressive), 3840x2160, SAR 1:1 DAR 16:9, 50 fps, 50 tbr, 50 tbn, 50 tbc
[libx264 @ 0x27a5120] using SAR=1/1
[libx264 @ 0x27a5120] using cpu capabilities: MMX2 SSE2Fast SSSE3 SSE4.2 AVX FMA3 AVX2 LZCNT BMI2
[libx264 @ 0x27a5120] profile High, level 5.2
[libx264 @ 0x27a5120] 264 - core 148 - H.264/MPEG-4 AVC codec - Copyleft 2003-2016 - http://www.videolan.org/x264.html - options: cabac=1 ref=5 deblock=1:0:0 analyse=0x3:0x113 me=hex subme=8 psy=1 psy_rd=1.00:0.00 mixed_ref=1 me_range=16 chroma_me=1 trellis=2 8x8dct=1 cqm=0 deadzone=21,11 fast_pskip=1 chroma_qp_offset=-2 threads=6 lookahead_threads=1 sliced_threads=0 nr=0 decimate=1 interlaced=0 bluray_compat=0 constrained_intra=0 bframes=3 b_pyramid=2 b_adapt=1 b_bias=0 direct=3 weightb=1 open_gop=0 weightp=2 keyint=250 keyint_min=25 scenecut=40 intra_refresh=0 rc_lookahead=50 rc=abr mbtree=1 bitrate=2500 ratetol=1.0 qcomp=0.60 qpmin=0 qpmax=69 qpstep=4 ip_ratio=1.40 aq=1:1.00
Output #0, matroska, to 'Output/x264/encoded/old_town_cross_2160p50slow2500k.mkv':
  Metadata:
    encoder         : Lavf57.57.100
    Stream #0:0: Video: h264 (libx264) (H264 / 0x34363248), yuv420p, 3840x2160 [SAR 1:1 DAR 16:9], q=-1--1, 2500 kb/s, 50 fps, 1k tbn, 50 tbc
    Metadata:
      encoder         : Lavc57.66.101 libx264
    Side data:
      cpb: bitrate max/min/avg: 0/0/2500000 buffer size: 0 vbv_delay: -1
Stream mapping:
  Stream #0:0 -> #0:0 (rawvideo (native) -> h264 (libx264))
Press [q] to stop, [?] for help
frame=   57 fps= 18 q=0.0 size=       0kB time=00:00:00.00 bitrate=N/A speed=   0x    frame=   65 fps= 18 q=54.0 size=       1kB time=00:00:00.04 bitrate= 143.2kbits/s speed=0.0111x    frame=   73 fps= 17 q=49.0 size=       1kB time=00:00:00.20 bitrate=  29.2kbits/s speed=0.0479x    frame=   82 fps= 17 q=48.0 size=       1kB time=00:00:00.38 bitrate=  15.4kbits/s speed=0.0785x    frame=   91 fps= 17 q=47.0 size=       1kB time=00:00:00.56 bitrate=  10.5kbits/s speed=0.104x    frame=   97 fps= 16 q=47.0 size=       1kB time=00:00:00.68 bitrate=   8.6kbits/s speed=0.116x    frame=  106 fps= 17 q=46.0 size=       1kB time=00:00:00.86 bitrate=   6.8kbits/s speed=0.135x    frame=  113 fps= 16 q=46.0 size=       1kB time=00:00:01.00 bitrate=   5.9kbits/s speed=0.145x    frame=  120 fps= 16 q=46.0 size=       1kB time=00:00:01.14 bitrate=   5.1kbits/s speed=0.152x    frame=  128 fps= 16 q=46.0 size=       1kB time=00:00:01.30 bitrate=   4.5kbits/s speed=0.159x    frame=  136 fps= 16 q=46.0 size=       1kB time=00:00:01.46 bitrate=   4.0kbits/s speed=0.167x    frame=  144 fps= 15 q=45.0 size=       1kB time=00:00:01.62 bitrate=   3.6kbits/s speed=0.174x    frame=  152 fps= 15 q=45.0 size=       1kB time=00:00:01.78 bitrate=   3.3kbits/s speed=0.179x    frame=  160 fps= 15 q=45.0 size=       1kB time=00:00:01.94 bitrate=   3.0kbits/s speed=0.184x    frame=  168 fps= 15 q=45.0 size=       1kB time=00:00:02.10 bitrate=   2.8kbits/s speed=0.189x    frame=  176 fps= 15 q=45.0 size=       1kB time=00:00:02.26 bitrate=   2.6kbits/s speed=0.192x    frame=  184 fps= 15 q=45.0 size=       1kB time=00:00:02.42 bitrate=   2.4kbits/s speed=0.197x    frame=  191 fps= 15 q=45.0 size=       1kB time=00:00:02.56 bitrate=   2.3kbits/s speed= 0.2x    frame=  198 fps= 15 q=45.0 size=       1kB time=00:00:02.70 bitrate=   2.2kbits/s speed=0.202x    frame=  204 fps= 15 q=45.0 size=       1kB time=00:00:02.82 bitrate=   2.1kbits/s speed=0.203x    frame=  213 fps= 15 q=45.0 size=       1kB time=00:00:03.00 bitrate=   2.0kbits/s speed=0.207x    frame=  220 fps= 15 q=45.0 size=       1kB time=00:00:03.14 bitrate=   1.9kbits/s speed=0.209x    frame=  228 fps= 15 q=45.0 size=       1kB time=00:00:03.30 bitrate=   1.8kbits/s speed=0.212x    frame=  236 fps= 15 q=45.0 size=       1kB time=00:00:03.46 bitrate=   1.7kbits/s speed=0.213x    frame=  244 fps= 15 q=45.0 size=       1kB time=00:00:03.62 bitrate=   1.6kbits/s speed=0.216x    frame=  249 fps= 14 q=45.0 size=       1kB time=00:00:03.72 bitrate=   1.6kbits/s speed=0.215x    frame=  256 fps= 14 q=45.0 size=       1kB time=00:00:03.86 bitrate=   1.5kbits/s speed=0.217x    frame=  263 fps= 14 q=45.0 size=       1kB time=00:00:04.00 bitrate=   1.5kbits/s speed=0.219x    frame=  271 fps= 14 q=44.0 size=       1kB time=00:00:04.16 bitrate=   1.4kbits/s speed=0.221x    frame=  272 fps= 14 q=45.0 size=       1kB time=00:00:04.18 bitrate=   1.4kbits/s speed=0.208x    frame=  273 fps= 13 q=45.0 size=       1kB time=00:00:04.20 bitrate=   1.4kbits/s speed=0.201x    frame=  275 fps= 13 q=45.0 size=       1kB time=00:00:04.24 bitrate=   1.4kbits/s speed=0.195x    frame=  280 fps= 12 q=45.0 size=       1kB time=00:00:04.34 bitrate=   1.4kbits/s speed=0.194x    frame=  285 fps= 12 q=45.0 size=       1kB time=00:00:04.44 bitrate=   1.3kbits/s speed=0.193x    frame=  290 fps= 12 q=45.0 size=       1kB time=00:00:04.54 bitrate=   1.3kbits/s speed=0.192x    frame=  295 fps= 12 q=45.0 size=       1kB time=00:00:04.64 bitrate=   1.3kbits/s speed=0.191x    frame=  299 fps= 12 q=45.0 size=       1kB time=00:00:04.72 bitrate=   1.2kbits/s speed=0.19x    frame=  303 fps= 12 q=45.0 size=       1kB time=00:00:04.80 bitrate=   1.2kbits/s speed=0.19x    frame=  311 fps= 12 q=45.0 size=    1418kB time=00:00:04.96 bitrate=2342.2kbits/s speed=0.191x    frame=  318 fps= 12 q=45.0 size=    1418kB time=00:00:05.10 bitrate=2277.9kbits/s speed=0.192x    frame=  326 fps= 12 q=45.0 size=    1418kB time=00:00:05.26 bitrate=2208.6kbits/s speed=0.195x    frame=  335 fps= 12 q=45.0 size=    1418kB time=00:00:05.44 bitrate=2135.6kbits/s speed=0.196x    frame=  343 fps= 12 q=45.0 size=    1418kB time=00:00:05.60 bitrate=2074.6kbits/s speed=0.198x    frame=  349 fps= 12 q=45.0 size=    1418kB time=00:00:05.72 bitrate=2031.0kbits/s speed=0.198x    frame=  357 fps= 12 q=45.0 size=    1418kB time=00:00:05.88 bitrate=1975.8kbits/s speed= 0.2x    frame=  364 fps= 12 q=45.0 size=    1418kB time=00:00:06.02 bitrate=1929.8kbits/s speed=0.201x    frame=  370 fps= 12 q=45.0 size=    1418kB time=00:00:06.14 bitrate=1892.1kbits/s speed=0.202x    frame=  377 fps= 12 q=45.0 size=    1418kB time=00:00:06.28 bitrate=1850.0kbits/s speed=0.202x    frame=  385 fps= 12 q=45.0 size=    1418kB time=00:00:06.44 bitrate=1804.0kbits/s speed=0.204x    frame=  393 fps= 12 q=45.0 size=    1418kB time=00:00:06.60 bitrate=1760.3kbits/s speed=0.205x    frame=  401 fps= 12 q=45.0 size=    1418kB time=00:00:06.76 bitrate=1718.6kbits/s speed=0.206x    frame=  409 fps= 12 q=45.0 size=    1418kB time=00:00:06.92 bitrate=1678.9kbits/s speed=0.208x    frame=  416 fps= 12 q=45.0 size=    1418kB time=00:00:07.06 bitrate=1645.6kbits/s speed=0.208x    frame=  421 fps= 12 q=45.0 size=    1418kB time=00:00:07.16 bitrate=1622.6kbits/s speed=0.208x    frame=  429 fps= 12 q=45.0 size=    1418kB time=00:00:07.32 bitrate=1587.2kbits/s speed=0.209x    frame=  437 fps= 12 q=45.0 size=    1418kB time=00:00:07.48 bitrate=1553.2kbits/s speed=0.21x    frame=  444 fps= 12 q=45.0 size=    1418kB time=00:00:07.62 bitrate=1524.7kbits/s speed=0.211x    frame=  450 fps= 12 q=45.0 size=    1418kB time=00:00:07.74 bitrate=1501.0kbits/s speed=0.211x    frame=  457 fps= 12 q=45.0 size=    1418kB time=00:00:07.88 bitrate=1474.4kbits/s speed=0.211x    frame=  465 fps= 12 q=45.0 size=    1418kB time=00:00:08.04 bitrate=1445.0kbits/s speed=0.212x    frame=  473 fps= 12 q=45.0 size=    1418kB time=00:00:08.20 bitrate=1416.9kbits/s speed=0.213x    frame=  479 fps= 12 q=45.0 size=    1418kB time=00:00:08.32 bitrate=1396.4kbits/s speed=0.214x    frame=  485 fps= 12 q=45.0 size=    1418kB time=00:00:08.44 bitrate=1376.6kbits/s speed=0.214x    frame=  493 fps= 12 q=45.0 size=    1418kB time=00:00:08.60 bitrate=1351.0kbits/s speed=0.215x    frame=  500 fps= 11 q=-1.0 Lsize=    3085kB time=00:00:09.94 bitrate=2542.0kbits/s speed=0.22x    
video:3080kB audio:0kB subtitle:0kB other streams:0kB global headers:0kB muxing overhead: 0.138348%
bench: utime=149.124s
bench: maxrss=2224516kB
[libx264 @ 0x27a5120] frame I:3     Avg QP:41.05  size: 73925
[libx264 @ 0x27a5120] frame P:183   Avg QP:43.32  size:  7839
[libx264 @ 0x27a5120] frame B:314   Avg QP:44.96  size:  4769
[libx264 @ 0x27a5120] consecutive B-frames: 16.0%  0.8%  0.0% 83.2%
[libx264 @ 0x27a5120] mb I  I16..4: 27.0% 71.1%  1.9%
[libx264 @ 0x27a5120] mb P  I16..4:  0.1%  0.0%  0.0%  P16..4:  9.7%  0.3%  4.0%  0.0%  0.0%    skip:85.9%
[libx264 @ 0x27a5120] mb B  I16..4:  0.0%  0.0%  0.0%  B16..8: 22.4%  0.0%  0.0%  direct: 0.0%  skip:77.6%  L0:37.8% L1:62.2% BI: 0.0%
[libx264 @ 0x27a5120] final ratefactor: 37.42
[libx264 @ 0x27a5120] 8x8 transform intra:67.7% inter:94.0%
[libx264 @ 0x27a5120] direct mvs  spatial:98.7% temporal:1.3%
[libx264 @ 0x27a5120] coded y,uvDC,uvAC intra: 19.5% 22.4% 2.4% inter: 0.2% 0.5% 0.0%
[libx264 @ 0x27a5120] i16 v,h,dc,p: 21% 44%  3% 33%
[libx264 @ 0x27a5120] i8 v,h,dc,ddl,ddr,vr,hd,vl,hu: 12%  2% 43%  6%  9%  6% 10%  4%  8%
[libx264 @ 0x27a5120] i4 v,h,dc,ddl,ddr,vr,hd,vl,hu:  4%  4%  2% 13% 19% 12% 20%  8% 19%
[libx264 @ 0x27a5120] i8c dc,h,v,p: 18% 67%  8%  8%
[libx264 @ 0x27a5120] Weighted P-Frames: Y:0.5% UV:0.0%
[libx264 @ 0x27a5120] ref P L0: 81.3%  6.4%  9.2%  1.4%  1.4%  0.3%
[libx264 @ 0x27a5120] ref B L0: 95.2%  3.7%  0.9%  0.2%
[libx264 @ 0x27a5120] ref B L1: 97.5%  2.5%
[libx264 @ 0x27a5120] kb/s:2522.94
